# xmcd CD database file
#
# Track frame offsets:
#	150
#	10380
#	17525
#	28755
#	45320
#	62602
#	72927
#	83732
#	88257
#	102887
#	110722
#	120827
#	126562
#	143365
#	158075
#	169535
#	192590
#	196890
#	238060
#	247940
#
# Disc length: 3464 seconds
#
# Revision: 0
# Processed by: cddbd v1.5.2PL0 Copyright (c) Steve Scherf et al.
# Submitted via: CDex 1.51
#
DISCID=020d8614
DTITLE=Bela Fleck - Perpetual Motion
DYEAR=2001
DGENRE=Jazz
TTITLE0=B.Fleck - C.Thile - Keyboard Sonata in C Major (K. 159, L. 104)
TTITLE1=B.Fleck - E.Glennie - Two-Part Invention No. 13 (BWV 784)
TTITLE2=B.Fleck - J.Bell - G.Hoffman - Doctor Gradus ad Parnassum from Children's Corner
TTITLE3=B.Fleck - J.Williams - Mazurka in F-sharp Minor, Op. 59, No. 3
TTITLE4=B.Fleck - Prelude from Partita No. 3 for Solo Violin (BWV 1006)
TTITLE5=B.Fleck - G.Hoffman - Etude in C-sharp Minor, Op. 10, No. 4
TTITLE6=B.Fleck - J.Bell - Mazurka in F-sharp Minor, Op. 6, No. 1
TTITLE7=B.Fleck - C.Thile - E.Meyer - Three-Part Invention (Sinfonia) No. 10 (BWV 796)
TTITLE8=B.Fleck - E.Meyer - Melody in E-flat
TTITLE9=B.Fleck - E.Glennie - Presto in G Minor I after Bach from Five Studies for Piano arrangement of J.S. Bach: Finale from Solo Violin Sonata (BWV 1001)
TTITLE10=B.Fleck - Prelude from Suite for Unaccompanied Cello No. 1 (BWV 1007)
TTITLE11=B.Fleck - J.Bell - E.Glennie - Three-Part Invention (Sinfonia) No. 15 (BWV 801)
TTITLE12=B.Fleck - E.Meyer - Moto Perpetuo, Op. 11, No. 2
TTITLE13=B.Fleck - C.Thile - Keyboard Sonata in D Minor (K.213, L. 108)
TTITLE14=B.Fleck - E.Meyer - Two-Part Invention No. 6 (BWV 777)
TTITLE15=B.Fleck - G.Hoffman - E.Meyer - Adagio sostenuto from Piano Sonata No. 14 in C-sharp Minor, Op. 27, No. 2 "Moonlight"
TTITLE16=B.Fleck - J.WilliamsE.Glennie - Two-part Invention No. 11 (BWV 782)
TTITLE17=B.Fleck - J.Williams - Seven Variations on "God Save the King"
TTITLE18=B.Fleck - J.Bell - E.Meyer - Three-Part Invention (Sinfonia) No. 7 (BWV 793)
TTITLE19=B.Fleck - J.Bryan - Moto Perpetuo, Op. 11, No. 2 (Bluegrass verion) 
EXTD=YEAR: 2001
EXTT0=
EXTT1=
EXTT2=
EXTT3=
EXTT4=
EXTT5=
EXTT6=
EXTT7=
EXTT8=
EXTT9=
EXTT10=
EXTT11=
EXTT12=
EXTT13=
EXTT14=
EXTT15=
EXTT16=
EXTT17=
EXTT18=
EXTT19=
PLAYORDER=
